<?xml version="1.0" encoding="UTF-8" standalone="no"?>
<!-- Generator: Adobe Illustrator 19.0.0, SVG Export Plug-In . SVG Version: 6.00 Build 0)  -->

<svg
   xmlns:dc="http://purl.org/dc/elements/1.1/"
   xmlns:cc="http://creativecommons.org/ns#"
   xmlns:rdf="http://www.w3.org/1999/02/22-rdf-syntax-ns#"
   xmlns:svg="http://www.w3.org/2000/svg"
   xmlns="http://www.w3.org/2000/svg"
   xmlns:sodipodi="http://sodipodi.sourceforge.net/DTD/sodipodi-0.dtd"
   xmlns:inkscape="http://www.inkscape.org/namespaces/inkscape"
   version="1.1"
   id="Layer_1"
   x="0px"
   y="0px"
   viewBox="0 0 504 504"
   style="enable-background:new 0 0 504 504;"
   xml:space="preserve"
   inkscape:version="0.91 r13725"
   sodipodi:docname="002-calendar-1.svg"><metadata
     id="metadata63"><rdf:RDF><cc:Work
         rdf:about=""><dc:format>image/svg+xml</dc:format><dc:type
           rdf:resource="http://purl.org/dc/dcmitype/StillImage" /></cc:Work></rdf:RDF></metadata><defs
     id="defs61" /><sodipodi:namedview
     pagecolor="#ffffff"
     bordercolor="#666666"
     borderopacity="1"
     objecttolerance="10"
     gridtolerance="10"
     guidetolerance="10"
     inkscape:pageopacity="0"
     inkscape:pageshadow="2"
     inkscape:window-width="1861"
     inkscape:window-height="1056"
     id="namedview59"
     showgrid="false"
     inkscape:zoom="1.8234127"
     inkscape:cx="252"
     inkscape:cy="252"
     inkscape:window-x="59"
     inkscape:window-y="24"
     inkscape:window-maximized="1"
     inkscape:current-layer="Layer_1" /><circle
     style="fill:#324A5E;"
     cx="252"
     cy="252"
     r="252"
     id="circle3" /><rect
     x="110.4"
     y="110.4"
     style="fill:#d40000"
     width="283.2"
     height="70.4"
     id="rect5" /><rect
     x="110.4"
     y="180.8"
     style="fill:#CED5E0;"
     width="283.2"
     height="212.8"
     id="rect7" /><rect
     x="142"
     y="221.2"
     style="fill:#FFFFFF;"
     width="220.4"
     height="143.2"
     id="rect9" /><g
     id="g11"><path
       style="fill:#324A5E;"
       d="M145.6,157.2c-5.2,0-9.2,4.8-9.2,10.4V194c0,6,4,10.4,9.2,10.4s9.2-4.8,9.2-10.4v-26.4   C155.2,161.6,150.8,157.2,145.6,157.2z"
       id="path13" /><path
       style="fill:#324A5E;"
       d="M198.8,157.2c-5.2,0-9.2,4.8-9.2,10.4V194c0,6,4,10.4,9.2,10.4s9.2-4.8,9.2-10.4v-26.4   C208,161.6,204,157.2,198.8,157.2z"
       id="path15" /><path
       style="fill:#324A5E;"
       d="M252,157.2c-5.2,0-9.2,4.8-9.2,10.4V194c0,6,4,10.4,9.2,10.4c5.2,0,9.2-4.8,9.2-10.4v-26.4   C261.2,161.6,257.2,157.2,252,157.2z"
       id="path17" /><path
       style="fill:#324A5E;"
       d="M305.2,157.2c-5.2,0-9.2,4.8-9.2,10.4V194c0,6,4,10.4,9.2,10.4s9.2-4.8,9.2-10.4v-26.4   C314.4,161.6,310.4,157.2,305.2,157.2z"
       id="path19" /><path
       style="fill:#324A5E;"
       d="M358.4,157.2c-5.2,0-9.2,4.8-9.2,10.4V194c0,6,4,10.4,9.2,10.4s9.2-4.8,9.2-10.4v-26.4   C367.6,161.6,363.2,157.2,358.4,157.2z"
       id="path21" /></g><g
     id="g23"
     transform="translate(0,40)"
     style="fill:#d40000"><text
       xml:space="preserve"
       style="font-style:normal;font-weight:normal;font-size:123.50416565px;line-height:125%;font-family:sans-serif;letter-spacing:0px;word-spacing:0px;fill:#d40000;fill-opacity:1;stroke:none;stroke-width:1px;stroke-linecap:butt;stroke-linejoin:miter;stroke-opacity:1"
       x="212.92252"
       y="297.01752"
       id="text3391"
       sodipodi:linespacing="125%"><tspan
         sodipodi:role="line"
         id="tspan3393"
         x="212.92252"
         y="297.01752">7</tspan></text>
</g><g
     id="g29" /><g
     id="g31" /><g
     id="g33" /><g
     id="g35" /><g
     id="g37" /><g
     id="g39" /><g
     id="g41" /><g
     id="g43" /><g
     id="g45" /><g
     id="g47" /><g
     id="g49" /><g
     id="g51" /><g
     id="g53" /><g
     id="g55" /><g
     id="g57" /></svg>