<?xml version="1.0" encoding="utf-8"?>
<!-- Generator: Adobe Illustrator 16.0.0, SVG Export Plug-In . SVG Version: 6.00 Build 0)  -->
<!DOCTYPE svg PUBLIC "-//W3C//DTD SVG 1.1//EN" "http://www.w3.org/Graphics/SVG/1.1/DTD/svg11.dtd">
<svg version="1.1" id="Calque_1" xmlns="http://www.w3.org/2000/svg" xmlns:xlink="http://www.w3.org/1999/xlink" x="0px" y="0px"
	 width="400px" height="400px" viewBox="0 0 400 400" enable-background="new 0 0 400 400" xml:space="preserve">
<line fill="none" x1="-0.5" y1="-0.544" x2="400.5" y2="-0.544"/>
<g>
	<line fill="none" x1="167.688" y1="-0.127" x2="170" y2="-0.127"/>
</g>
<path fill="#546673" d="M127.424,245.303l0.098,11.106c0,0,1.049,1.239,1.837-0.576l4.688-12.505L127.424,245.303z"/>
<path fill="#546673" d="M175.848,244.448l-0.804,11.077c0,0-1.127,1.171-1.797-0.692l-3.882-12.776L175.848,244.448z"/>
<rect x="0" fill="#4FA9D1" width="400" height="400"/>
<polygon fill="#469BBA" points="390.538,277.286 305.031,195.657 277.377,195.839 276.16,200.286 177.452,200.286 176.706,196.286 
	109.198,129.92 81.544,130.106 84.039,277.62 "/>
<g>
	<path fill="#FCF6F4" d="M105.267,277.76H86.313V140.427H82.72V277.76h-5.453c-3.3,0-6,2.7-6,6v0.334h40v-0.334
		C111.267,280.46,108.566,277.76,105.267,277.76z"/>
	<g>
		<path fill="#FCF6F4" d="M85.866,146.12c12.146,0.092,22.193-7.224,23.488-16.69l-46.725-0.351
			C63.783,138.564,73.72,146.029,85.866,146.12z"/>
	</g>
</g>
<g>
	<g>
		<path fill="#546673" d="M124.71,267.382l0.099,11.106c0,0,1.049,1.238,1.837-0.577l4.688-12.504L124.71,267.382z"/>
		<path fill="#546673" d="M174.635,267.859l-0.805,11.078c0,0-1.126,1.17-1.797-0.692l-3.882-12.777L174.635,267.859z"/>
	</g>
	<rect x="172.789" y="199.705" fill="#EE6564" width="82.583" height="18.248"/>
	<g>
		<path fill="#546673" d="M253.085,266.632l0.099,11.106c0,0,1.049,1.238,1.837-0.577l4.688-12.504L253.085,266.632z"/>
		<path fill="#546673" d="M302.635,267.027l-0.806,11.076c0,0-1.126,1.172-1.797-0.691l-3.881-12.777L302.635,267.027z"/>
	</g>
	<rect x="124.772" y="199.705" fill="#C15353" width="50.206" height="43"/>
	<rect x="124.813" y="220.286" fill="#EE6564" width="50.165" height="47.663"/>
	<rect x="124.563" y="199.746" fill="#E16060" width="50.727" height="18.29"/>
	<rect x="128.813" y="199.705" fill="#CC5657" width="42.5" height="7.387"/>
	<rect x="128.813" y="199.705" fill="#C15353" width="3.404" height="7.354"/>
	<rect x="129.218" y="203.559" fill="#C15353" width="42.096" height="3.533"/>
	<g>
		<rect x="252.591" y="202.221" fill="#EE6564" width="50.666" height="64.896"/>
		<rect x="256.916" y="203.157" fill="#AA494E" width="42.665" height="41.834"/>
		<rect x="288.249" y="201.466" fill="#C15353" width="11.416" height="44.487"/>
		<rect x="257.041" y="235.449" fill="#C15353" width="42.54" height="8"/>
		<rect x="256.791" y="212.949" fill="#C15353" width="42.54" height="8"/>
		<rect x="254.666" y="242.741" fill="#EE6564" width="46.75" height="4.5"/>
		<rect x="254.541" y="217.741" fill="#EE6564" width="46.75" height="4.5"/>
		<rect x="252.601" y="198.991" fill="#EE6564" width="50.667" height="4.5"/>
	</g>
	<rect x="122.813" y="194.413" fill="#546673" width="181.831" height="5.25"/>
	<g>
		<path fill="#546673" d="M236.226,185.378h-75.691c-0.41,0-0.742-0.333-0.742-0.742V132.32c0-0.41,0.332-0.742,0.742-0.742h75.691
			c0.409,0,0.741,0.332,0.741,0.742v52.315C236.967,185.045,236.635,185.378,236.226,185.378z"/>
		<path fill="#92A3AC" d="M234.131,172.577h-71.132c-0.337,0-0.61-0.273-0.61-0.61v-37.574c0-0.337,0.273-0.61,0.61-0.61h71.132
			c0.337,0,0.61,0.273,0.61,0.61v37.574C234.741,172.304,234.468,172.577,234.131,172.577z"/>
		<path fill="#7B8B95" d="M236.466,185.563h-75.911c-0.409,0-0.74-0.333-0.74-0.742l-0.024-8.806c3.667,0,76.042,0.25,77.188,0.25
			l0.229,8.556C237.206,185.23,236.874,185.563,236.466,185.563z"/>
		<rect x="189.289" y="185.563" fill="#546673" width="17.624" height="7.421"/>
		<path fill="#546673" d="M207.723,195.199H188.48c-0.778,0-1.417-0.638-1.417-1.417v-0.495c0-0.779,0.639-1.416,1.417-1.416h19.243
			c0.779,0,1.417,0.637,1.417,1.416v0.495C209.14,194.562,208.502,195.199,207.723,195.199z"/>
		<g>
			<polygon fill="#C5D8E0" points="217.303,133.782 212.09,133.782 171.479,171.649 170.414,172.536 176.355,172.536 			"/>
			<polygon fill="#C5D8E0" points="223.938,133.782 221.7,133.782 178.934,172.536 181.743,172.536 			"/>
		</g>
	</g>
	<g>
		
			<ellipse transform="matrix(0.4892 -0.8722 0.8722 0.4892 -11.3525 324.9524)" fill="#FFDC4D" cx="271.739" cy="172.168" rx="2.75" ry="10.319"/>
		<ellipse fill="#FCF6F4" cx="272.338" cy="170.451" rx="3.444" ry="3.505"/>
		<path fill="#546673" d="M279.896,163.74c0.222,0.143,21.25,7.666,21.25,7.666l-0.75,2.25l-21.5-7.75
			C278.896,165.906,278.479,162.823,279.896,163.74z"/>
		<path fill="#546673" d="M287.932,193.616L287.932,193.616c-0.577-0.374-0.743-1.152-0.369-1.729l13.487-20.81
			c0.374-0.577,1.15-0.743,1.729-0.369l0,0c0.577,0.374,0.743,1.152,0.369,1.729l-13.486,20.81
			C289.286,193.824,288.508,193.99,287.932,193.616z"/>
		<g>
			<path fill="#546673" d="M289.917,192.198h-11.625c-1.276,0-2.32,0.998-2.418,2.25h16.462
				C292.237,193.196,291.193,192.198,289.917,192.198z"/>
		</g>
		<path fill="#546673" d="M284.164,150.412L284.164,150.412c-1.617-0.986-3.748-0.471-4.735,1.146l-5.513,9.035
			c-1.738,0.737-8.515,3.711-10.824,6.231c0,0,10.757-0.604,17.283,10.394l0.604,0.604c0,0,0.061-12.42-0.294-15.099l4.624-7.578
			C286.297,153.529,285.781,151.398,284.164,150.412z"/>
	</g>
	<g>
		<path fill="#FFFFFF" d="M149.485,228.699c-2.112,0-3.825-1.791-3.825-4h7.651C153.312,226.908,151.599,228.699,149.485,228.699z"
			/>
	</g>
	<g>
		<path fill="#FFFFFF" d="M277.818,250.699c-2.112,0-3.825-1.791-3.825-4h7.651C281.645,248.908,279.932,250.699,277.818,250.699z"
			/>
	</g>
</g>
</svg>
