<?xml version="1.0" encoding="utf-8"?>
<!-- Generator: Adobe Illustrator 16.0.0, SVG Export Plug-In . SVG Version: 6.00 Build 0)  -->
<!DOCTYPE svg PUBLIC "-//W3C//DTD SVG 1.1//EN" "http://www.w3.org/Graphics/SVG/1.1/DTD/svg11.dtd">
<svg version="1.1" id="Calque_1" xmlns="http://www.w3.org/2000/svg" xmlns:xlink="http://www.w3.org/1999/xlink" x="0px" y="0px"
	 width="400px" height="400px" viewBox="0 0 400 400" enable-background="new 0 0 400 400" xml:space="preserve">
<line fill="none" x1="-0.5" y1="-0.544" x2="400.5" y2="-0.544"/>
<g>
	<line fill="none" x1="167.688" y1="-0.127" x2="170" y2="-0.127"/>
</g>
<rect x="0" fill="#F6DA65" width="400" height="400"/>
<g>
	<polygon opacity="0.5" fill="#D1B12E" enable-background="new    " points="199.696,218.929 198.75,266.083 74.459,266.083 
		74.459,289.418 230.125,289.418 293.792,290.418 303.041,290.918 227.351,218.743 	"/>
	<polygon opacity="0.5" fill="#D1B12E" enable-background="new    " points="338.125,203.25 314.791,203.083 314.791,289.084 
		398.791,290.418 398.791,262.917 	"/>
</g>
<g>
	<polygon fill="#E3E0CE" points="128.702,279.84 116.898,296.506 268.042,296.793 255.508,279.506 	"/>
	<polygon fill="#546673" points="117.565,295.006 101.565,317.34 285.231,317.34 266.898,295.34 	"/>
</g>
<g>
	<rect x="136.731" y="63.273" fill="#FCF6F4" width="61" height="7.784"/>
	<polygon fill="#C15832" points="168.231,39.58 165.731,39.58 165.979,0.417 168.292,0.417 	"/>
	<rect x="125.731" y="36.58" fill="#546673" width="82.5" height="27.5"/>
</g>
<g>
	<g>
		<rect x="214.897" y="82.247" fill="#EE6564" width="102" height="101.667"/>
		<rect x="218.731" y="85.913" fill="#FCF6F4" width="94.333" height="94"/>
		<rect x="230.064" y="99.913" fill="#BDC2A6" width="71.667" height="60.667"/>
	</g>
	<ellipse fill="#546673" cx="250.369" cy="126.801" rx="16.499" ry="16.718"/>
	<ellipse opacity="0.59" fill="#F06465" enable-background="new    " cx="270.618" cy="133.885" rx="15.75" ry="17.134"/>
</g>
<g>
	<path fill="#EE6564" d="M280.539,223.759c0,0-17.497,15.074,1.003,24.074c18.499,9,0,0,0,0l4-3.75l-3.5-21L280.539,223.759"/>
	<g>
		<g>
			<ellipse fill="#546673" cx="292.195" cy="299.436" rx="2.75" ry="1.938"/>
			
				<ellipse fill="none" stroke="#FCF6F4" stroke-width="0.25" stroke-miterlimit="10" cx="292.102" cy="299.311" rx="1.906" ry="1.563"/>
			<ellipse fill="#546673" cx="339.195" cy="290.623" rx="2.75" ry="1.938"/>
			
				<ellipse fill="none" stroke="#FCF6F4" stroke-width="0.25" stroke-miterlimit="10" cx="339.102" cy="290.498" rx="1.906" ry="1.563"/>
			<ellipse fill="#546673" cx="292.195" cy="290.498" rx="2.75" ry="1.938"/>
			
				<ellipse fill="none" stroke="#FCF6F4" stroke-width="0.25" stroke-miterlimit="10" cx="292.102" cy="290.373" rx="1.906" ry="1.563"/>
			<ellipse fill="#546673" cx="339.445" cy="299.498" rx="2.75" ry="1.938"/>
			
				<ellipse fill="none" stroke="#FCF6F4" stroke-width="0.25" stroke-miterlimit="10" cx="339.352" cy="299.373" rx="1.906" ry="1.563"/>
			<path fill="#FCF6F4" d="M340.826,297.59l-13.166-5.102l13.015-2.428c0.724-0.203,0.738-0.701,0.738-0.984
				c0-0.797-0.988-0.891-0.988-0.891l-22.25,0.625l0.45-22.228l-5.833,0.167l0.64,21.932l-22.111-0.621c0,0-0.858,0.03-1.047,0.577
				c-0.121,0.354-0.094,0.984,0.797,1.298l12.703,2.368l-12.511,4.849c0,0-0.78,0.36-0.74,0.938
				c0.024,0.371,0.295,0.943,1.236,0.888l23.533-5.896l1.419,0.055l23.621,6.277c0.94,0.057,1.212-0.517,1.236-0.888
				C341.607,297.951,340.826,297.59,340.826,297.59z"/>
		</g>
		<g>
			<path fill="#EE6564" d="M320.524,267.245h-10.471c-17.058,0-31.015-13.957-31.015-31.015v-15.472
				c0-17.059,13.957-31.015,31.015-31.015h10.471c17.058,0,31.015,13.956,31.015,31.015v15.472
				C351.538,253.288,337.581,267.245,320.524,267.245z"/>
			<path fill="#DB5D5D" d="M333.038,195.37c0,0-8.707-4.228-17.188-3.628c-8.48-0.6-17.188,3.628-17.188,3.628
				c-15.624,8.25-15.999,22.875-15.999,22.875l0.875,18.625c10.611-4.96,29.301-5.13,32.124-5.127v0.002
				c0,0,0.072-0.001,0.188-0.001s0.188,0.001,0.188,0.001v-0.002c2.824-0.003,21.514,0.167,32.125,5.127l0.875-18.625
				C349.038,218.245,348.663,203.62,333.038,195.37z"/>
			<path fill="#F27273" d="M283.667,236.708c0,0,38.458-12.791,64.124-0.125c0,0-6,13.334-20,18.334
				C327.791,254.917,295.625,264.917,283.667,236.708C283.667,236.708,286.104,240.271,283.667,236.708z"/>
		</g>
		<path fill="#DC636A" d="M283.792,237.333c0,0,8,10.625,29.999,12.25c0,0,17.5,2.375,34-13c0,0-3.75,16.375-27.875,20.625
			C319.916,257.208,294.542,260.833,283.792,237.333z"/>
		<path fill="#EE6564" d="M350.776,222.759c0,0,17.497,15.074-1.003,24.074s0,0,0,0l-4-3.75l3.5-21L350.776,222.759"/>
	</g>
	<path fill="#546673" d="M342.673,217.893c0,0-25.443-1.863-27.319-0.938c0,0-1.154-0.104-0.755,3.131l1.233,16.26
		c0,0,0.096,1.63,1.181,2.007l26.331,0.768c0,0,1.345,0.183,1.722-0.775c0.059-0.147,0.094-0.322,0.098-0.527
		c0.028-1.547-1.339-18.686-1.339-18.686S343.755,218.104,342.673,217.893z"/>
</g>
<polygon fill="#BFBB9F" points="128.702,279.84 122.292,289.168 263.042,289.918 255.508,279.506 "/>
<g>
	<path fill="#546673" d="M226.346,277.27l3.566,15.316c0,0-0.948,1.943-2.562-0.143l-10.145-14.603L226.346,277.27z"/>
	<path fill="#546673" d="M73.474,278.412l-3.513,14.363c0,0,0.948,1.942,2.561-0.144l10.146-14.6L73.474,278.412z"/>
	<path fill="#455761" d="M78.399,284.764c0,0,0.76,1.232,2.182,0l5.595-6.541l-3.034-0.381L78.399,284.764z"/>
	<path fill="#455761" d="M221.474,284.574c0,0-0.759,1.232-2.181,0l-5.594-6.541l3.032-0.381L221.474,284.574z"/>
	<polygon fill="#DB5D5D" points="59.058,234.417 69.866,238.4 70.056,250.157 62.092,254.708 	"/>
	<path fill="#EE6564" d="M224.634,259.354H74.576c-2.538,0-4.615-2.076-4.615-4.613v-32.301c0-2.537,2.077-4.613,4.615-4.613
		h150.058c2.538,0,4.614,2.076,4.614,4.613v32.301C229.248,257.277,227.172,259.354,224.634,259.354z"/>
	<path fill="#DB5D5D" d="M152.538,254.326c-0.332-0.119-0.805-0.188-1.494-0.188l-89.143-0.048c0,2.562,0.239,8.581,0.239,8.581
		c0.434,6.778,5.278,8.153,10.027,8.153l62.201,0.268c-0.372,0.195-0.27,0.302,0.553,0.302l92.212-0.379
		c4.75,0,9.596-1.375,10.027-8.154c0,0,0.239-6.021,0.239-8.581L152.538,254.326z"/>
	<path fill="#F27273" d="M224.011,247.501c0,0,4.172-0.283,4.788,0.76l7.053,6.302l-173.593,0.146l8.38-6.642
		c0,0,1.138-0.569,3.697-0.569L224.011,247.501z"/>
	<path fill="#EE6564" d="M62.365,256.6c0.009-0.744,0.596-1.382,1.275-1.681s1.445-0.326,2.188-0.351
		c-0.517-0.967-1.927-1.313-2.829-0.692c-0.904,0.619-1.092,2.06-0.378,2.89"/>
	<path fill="#DB5D5D" d="M229.049,232.33l0.152-9.654c0,0-0.248-4.05-4.137-4.619l-4.172,0.096l-13.7,29.533l16.975,7.482h4
		l8.951,1.152l3.032-21.617L229.049,232.33z"/>
	<path fill="#DB5D5D" d="M79.432,217.773l12.8,29.582H72.605c0,0-1.92-0.159-2.897,1.404l-1.132-4.154l1.291-6.205l0.179-6.83
		v-7.254c0,0-0.782-5.547,3.911-6.4L79.432,217.773z"/>
	<path fill="#EE6564" d="M247.338,236.219c-1.213-3.129-5.061-2.845-5.061-2.845c-6.36,0-5.879,5.879-5.879,5.879l-0.579,11.565
		l-0.239,10.716c-0.964,9.86-13.061,8.344-13.061,8.344H75.498c0,0-12.098,1.517-13.061-8.344l-0.241-10.716l-0.577-11.565
		c0,0,0.48-5.879-5.881-5.879c0,0-3.577-0.703-5.06,2.845c-0.65,1.559-0.899,4.698-0.723,7.822c0,0-0.098,29.914,12.817,33.232
		c0,0,6.361,1.139,10.698,1.139l73.729,0.09l0.003,0.004l2.019-0.002l2.029,0.002l0.003-0.004l73.288-0.09
		c4.337,0,10.698-1.139,10.698-1.139c12.914-3.318,12.818-33.232,12.818-33.232C248.237,240.917,247.948,237.792,247.338,236.219z"
		/>
	<path opacity="0.33" fill="#CBC9B5" enable-background="new    " d="M220.542,255.792l3.75,0.5c0,0,2.188,0.625,2-2.25l1.313-10.75
		c0,0,0.436-1.158-0.954-1.404c-0.313-0.057-1.156-0.253-1.607-0.282l-1.813-0.234C223.229,241.371,227.479,252.792,220.542,255.792
		z"/>
	<g>
		<g>
			<path fill="#782424" d="M88.981,217.955c0,0,0.875,7.875,0.5,14.75"/>
			<path fill="#782424" d="M109.731,217.893c0,0,0.875,7.976,0.5,14.938"/>
			<path fill="#782424" d="M130.106,217.83c0,0,0.875,7.977,0.5,14.938"/>
			<path fill="#782424" d="M151.044,218.018c0,0,0.875,7.976,0.5,14.938"/>
			<path fill="#782424" d="M170.044,218.768c0,0,0.875,7.976,0.5,14.938"/>
			<path fill="#782424" d="M190.294,219.018c0,0,0.875,7.976,0.5,14.938"/>
			<path fill="#782424" d="M209.877,217.934c0,0,0.875,7.977,0.5,14.938"/>
		</g>
		<g>
			<path fill="#782424" d="M89.481,231.955c0,0,0.875,7.875,0.5,14.75"/>
			<path fill="#782424" d="M110.231,231.893c0,0,0.875,7.976,0.5,14.938"/>
			<path fill="#782424" d="M130.606,231.83c0,0,0.875,7.977,0.5,14.938"/>
			<path fill="#782424" d="M151.544,232.018c0,0,0.875,7.976,0.5,14.938"/>
			<path fill="#782424" d="M170.544,232.768c0,0,0.875,7.976,0.5,14.938"/>
			<path fill="#782424" d="M190.794,233.018c0,0,0.875,7.976,0.5,14.938"/>
			<path fill="#782424" d="M210.377,231.934c0,0,0.875,7.977,0.5,14.938"/>
		</g>
		<g>
			<path fill="#782424" d="M73.582,233.832c0,0,7.992-0.701,14.944-0.174"/>
		</g>
		<g>
			<path fill="#782424" d="M89.582,233.332c0,0,11.787-0.617,22.054-0.02"/>
		</g>
		<g>
			<path fill="#782424" d="M110.957,233.332c0,0,11.076-0.633,20.721-0.047"/>
		</g>
		<g>
			<path fill="#782424" d="M131.332,233.457c0,0,11.076-0.633,20.721-0.047"/>
		</g>
		<g>
			<path fill="#782424" d="M151.957,233.332c0,0,10.337-0.648,19.336-0.078"/>
		</g>
		<g>
			<path fill="#782424" d="M171.207,233.207c0,0,10.337-0.648,19.336-0.078"/>
		</g>
		<g>
			<path fill="#782424" d="M190.832,233.457c0,0,10.337-0.648,19.336-0.078"/>
		</g>
		<g>
			<path fill="#782424" d="M210.207,233.457c0,0,10.337-0.648,19.336-0.078"/>
		</g>
	</g>
	<g opacity="0.47">
		<circle fill="#782424" cx="89.73" cy="233.47" r="1.422"/>
		<circle fill="#782424" cx="110.209" cy="233.47" r="1.422"/>
		<circle fill="#782424" cx="130.689" cy="233.47" r="1.422"/>
		<circle fill="#782424" cx="151.169" cy="233.47" r="1.422"/>
		<circle fill="#782424" cx="170.511" cy="233.47" r="1.422"/>
		<circle fill="#782424" cx="190.991" cy="233.47" r="1.422"/>
		<circle fill="#782424" cx="210.333" cy="233.47" r="1.422"/>
	</g>
	<path fill="#E3E0CE" d="M226.585,241.928c0,0-24.877-3.855-26.871-3.423c0,0-1.125-0.188-1.215,2.035l-1.213,11.096
		c0,0-0.15,1.109,0.865,1.476l25.919,3.207c0,0,1.304,0.261,1.819-0.349c0.079-0.094,0.14-0.207,0.175-0.346
		c0.261-1.04,1.475-12.742,1.475-12.742S227.623,242.182,226.585,241.928z"/>
	<g>
		<path fill="#E3E0CE" d="M101.383,236.005c0,0-25.167,0.631-27.052,1.412c0,0-1.142,0.017-0.833,2.219l0.778,11.136
			c0,0,0.051,1.116,1.115,1.297l26.076-1.455c0,0,1.329,0.023,1.729-0.666c0.063-0.105,0.102-0.229,0.11-0.371
			c0.071-1.07-0.815-12.803-0.815-12.803S102.449,236.07,101.383,236.005z"/>
	</g>
</g>
</svg>
