<?xml version="1.0" encoding="utf-8"?>
<!-- Generator: Adobe Illustrator 16.0.0, SVG Export Plug-In . SVG Version: 6.00 Build 0)  -->
<!DOCTYPE svg PUBLIC "-//W3C//DTD SVG 1.1//EN" "http://www.w3.org/Graphics/SVG/1.1/DTD/svg11.dtd">
<svg version="1.1" id="Calque_1" xmlns="http://www.w3.org/2000/svg" xmlns:xlink="http://www.w3.org/1999/xlink" x="0px" y="0px"
	 width="330px" height="330px" viewBox="-9.252 1300.456 330 330" enable-background="new -9.252 1300.456 330 330"
	 xml:space="preserve">
<g>
	<path fill="#2CAC95" d="M162.411,1585.53c-2.853,0-5.413-1.827-6.333-4.561l-25.613-76.84l-76.826-25.613
		c-2.494-0.826-4.254-3.04-4.521-5.64c-0.28-2.613,1.014-5.134,3.28-6.44l253.333-146.666c2.28-1.294,5.066-1.174,7.16,0.307
		c2.133,1.479,3.199,4.066,2.746,6.626l-39.999,226.667c-0.347,2-1.601,3.733-3.4,4.707c-1.773,0.973-3.906,1.066-5.8,0.267
		l-85.787-36.76l-11.72,58.613c-0.587,2.96-3.094,5.159-6.12,5.347C162.692,1585.517,162.545,1585.53,162.411,1585.53z
		 M71.892,1470.544l65.96,21.986c1.986,0.653,3.56,2.227,4.213,4.213l18.721,56.188l8.413-42.054c0.387-1.96,1.653-3.653,3.44-4.587
		c1.772-0.946,3.88-1.026,5.732-0.227l85.601,36.68l36.053-204.279L71.892,1470.544z"/>
	<path fill="#2CAC95" d="M175.745,1518.863c-1.347,0-2.693-0.399-3.88-1.239c-3-2.134-3.681-6.308-1.547-9.294l86.52-121.12
		l-116.387,116.374c-2.6,2.6-6.826,2.6-9.427,0c-2.6-2.601-2.6-6.827,0-9.427l173.334-173.334c2.466-2.467,6.373-2.626,9.026-0.373
		c2.64,2.24,3.12,6.133,1.12,8.96l-133.333,186.667C179.878,1517.891,177.812,1518.863,175.745,1518.863z"/>
	<path fill="#2CAC95" d="M162.411,1585.53c-1.387,0-2.8-0.44-4-1.333c-2.946-2.214-3.546-6.387-1.347-9.334l40-53.333
		c2.228-2.96,6.4-3.533,9.334-1.333c2.946,2.213,3.547,6.386,1.347,9.333l-40,53.333
		C166.439,1584.61,164.425,1585.53,162.411,1585.53z"/>
	<g>
		<g>
			<path fill="#2CAC95" d="M12.038,1568.104c-1.613,0-3.227-0.573-4.52-1.76c-3.32-3.054-6.587-6.2-9.813-9.427
				c-2.601-2.601-2.601-6.827,0-9.427c2.6-2.613,6.826-2.6,9.427-0.014c3.093,3.094,6.239,6.12,9.427,9.054
				c2.706,2.493,2.88,6.707,0.387,9.427C15.625,1567.37,13.825,1568.104,12.038,1568.104z"/>
			<path fill="#2CAC95" d="M102.865,1612.05c-6.294,0-12.747-0.666-19.174-1.986c-3.613-0.733-5.92-4.253-5.2-7.866
				c0.747-3.613,4.307-5.894,7.88-5.2c5.547,1.133,11.094,1.706,16.494,1.706c0.026,0,0.053,0,0.08,0l3-0.053
				c4.333-0.24,6.786,2.746,6.92,6.413c0.133,3.667-2.761,6.787-6.427,6.92l-3.48,0.066
				C102.932,1612.05,102.892,1612.05,102.865,1612.05z M55.092,1599.29c-1.04,0-2.08-0.24-3.067-0.746
				c-6.213-3.228-12.573-7.107-18.92-11.507c-3.04-2.106-3.773-6.267-1.666-9.28c2.106-3.04,6.279-3.76,9.267-1.667
				c5.866,4.094,11.746,7.667,17.467,10.627c3.267,1.693,4.546,5.72,2.84,8.986C59.825,1597.983,57.505,1599.29,55.092,1599.29z"/>
			<path fill="#2CAC95" d="M137.145,1604.903c-2.586,0-5.053-1.52-6.133-4.04c-1.44-3.387,0.133-7.307,3.52-8.76
				c3.693-1.587,7.44-3.453,11.16-5.653c3.16-1.866,7.24-0.826,9.134,2.36c1.88,3.173,0.826,7.253-2.36,9.133
				c-4.12,2.427-8.387,4.601-12.693,6.44C138.918,1604.743,138.025,1604.903,137.145,1604.903z"/>
		</g>
	</g>
</g>
</svg>
