<?xml version="1.0" encoding="UTF-8" standalone="no"?>
<svg
   xmlns:dc="http://purl.org/dc/elements/1.1/"
   xmlns:cc="http://creativecommons.org/ns#"
   xmlns:rdf="http://www.w3.org/1999/02/22-rdf-syntax-ns#"
   xmlns:svg="http://www.w3.org/2000/svg"
   xmlns="http://www.w3.org/2000/svg"
   xmlns:sodipodi="http://sodipodi.sourceforge.net/DTD/sodipodi-0.dtd"
   xmlns:inkscape="http://www.inkscape.org/namespaces/inkscape"
   version="1.1"
   x="0px"
   y="0px"
   viewBox="0 0 330 330"
   enable-background="new 0 0 100 100"
   xml:space="preserve"
   id="svg2"
   inkscape:version="0.91 r13725"
   sodipodi:docname="handicaps.svg"
   width="330"
   height="330"><metadata
     id="metadata20"><rdf:RDF><cc:Work
         rdf:about=""><dc:format>image/svg+xml</dc:format><dc:type
           rdf:resource="http://purl.org/dc/dcmitype/StillImage" /><dc:title></dc:title></cc:Work></rdf:RDF></metadata><defs
     id="defs18" /><sodipodi:namedview
     pagecolor="#ffffff"
     bordercolor="#666666"
     borderopacity="1"
     objecttolerance="10"
     gridtolerance="10"
     guidetolerance="10"
     inkscape:pageopacity="0"
     inkscape:pageshadow="2"
     inkscape:window-width="1861"
     inkscape:window-height="1056"
     id="namedview16"
     showgrid="false"
     inkscape:zoom="1"
     inkscape:cx="46.557203"
     inkscape:cy="62.5"
     inkscape:window-x="59"
     inkscape:window-y="24"
     inkscape:window-maximized="1"
     inkscape:current-layer="g4" /><g
     id="g4"
     transform="translate(0,205)"><g
       id="g4148"
       transform="translate(21.280778,13.399998)"><circle
         r="33.952011"
         style="fill:#2cac95;fill-opacity:1"
         id="circle6"
         cy="-164.74799"
         cx="121.99723" /><path
         inkscape:connector-curvature="0"
         style="fill:#2cac95;fill-opacity:1"
         id="path8"
         d="m 121.99724,91.9 c 32.85678,0 63.52311,-14.603015 83.96733,-40.523367 L 177.48869,28.376884 c -13.50779,16.793468 -33.95201,26.650503 -55.49145,26.650503 -39.428144,0 -71.189702,-31.761558 -71.189702,-71.189699 0,-27.015578 14.96809,-51.475628 39.063065,-63.523115 L 73.442211,-112.17714 C 36.934673,-93.558292 14.3,-57.050754 14.3,-15.797236 14.3,43.71005 62.855025,91.9 121.99724,91.9 Z" /><polygon
         transform="matrix(3.6507538,0,0,3.6507538,-37.905779,-243.60427)"
         style="fill:#2cac95;fill-opacity:1"
         id="polygon10"
         points="48.8,35.8 38.8,35.8 38.8,67.4 65.2,67.4 76.2,89.9 85.2,85.5 71.5,57.4 48.8,57.4 " /></g></g></svg>