<?xml version="1.0" encoding="utf-8"?>
<!-- Generator: Adobe Illustrator 16.0.0, SVG Export Plug-In . SVG Version: 6.00 Build 0)  -->
<!DOCTYPE svg PUBLIC "-//W3C//DTD SVG 1.1//EN" "http://www.w3.org/Graphics/SVG/1.1/DTD/svg11.dtd">
<svg version="1.1" id="Calque_1" xmlns="http://www.w3.org/2000/svg" xmlns:xlink="http://www.w3.org/1999/xlink" x="0px" y="0px"
	 width="330px" height="330px" viewBox="1.205 1266.39 330 330" enable-background="new 1.205 1266.39 330 330"
	 xml:space="preserve">
<path fill="#2CAC95" d="M283.068,1507.885c-0.847-0.775-1.692-1.553-2.47-2.328l-34.421-35.13
	c-9.805-10.864-18.129-1.835-18.129-1.835l-20.103,20.458c-0.918,0.917-1.765,1.906-2.61,2.892
	c-4.797,5.503-11.852,5.645-20.033,2.329c-3.95-1.623-7.689-3.881-11.004-6.561c-8.183-6.491-21.443-17.495-34.492-29.84
	c-12.415-13.052-23.349-26.313-29.838-34.496c-2.681-3.386-4.938-7.054-6.56-11.005c-3.315-8.183-3.174-15.238,2.327-20.035
	c0.988-0.846,1.975-1.693,2.893-2.609l20.456-20.105c0,0,9.1-8.324-1.834-18.129l-35.129-34.426
	c-0.775-0.777-1.552-1.623-2.327-2.47c-2.399-2.68-10.086-9.735-17.916-0.282c-0.706,0.847-1.481,1.763-2.258,2.54l-11.568,11.569
	c-8.252,8.253-13.19,19.258-13.685,30.898c-0.282,7.406,0.776,16.366,4.515,26.665c9.734,26.525,16.083,37.671,18.059,40.916
	c0.563,0.847,1.057,1.693,1.481,2.61c1.198,2.257,3.809,6.842,7.971,13.121l-0.143,0.141c1.976,2.752,3.951,5.433,5.926,8.042
	c7.054,9.594,16.859,21.587,29.979,34.567c12.979,13.05,24.971,22.927,34.564,29.981c2.61,1.976,5.29,3.951,8.041,5.927l0.141-0.142
	c6.278,4.231,10.863,6.772,13.12,7.972c0.918,0.493,1.765,0.986,2.61,1.481c3.245,2.045,14.39,8.323,40.912,18.059
	c10.298,3.809,19.257,4.867,26.664,4.515c11.638-0.493,22.642-5.433,30.895-13.686l11.568-11.568
	c0.776-0.777,1.693-1.553,2.539-2.259C292.802,1517.902,285.748,1510.283,283.068,1507.885z"/>
</svg>
