<?xml version="1.0" encoding="utf-8"?>
<!-- Generator: Adobe Illustrator 16.0.0, SVG Export Plug-In . SVG Version: 6.00 Build 0)  -->
<!DOCTYPE svg PUBLIC "-//W3C//DTD SVG 1.1//EN" "http://www.w3.org/Graphics/SVG/1.1/DTD/svg11.dtd">
<svg version="1.1"
	 id="svg2" xmlns:sodipodi="http://sodipodi.sourceforge.net/DTD/sodipodi-0.dtd" xmlns:inkscape="http://www.inkscape.org/namespaces/inkscape" xmlns:dc="http://purl.org/dc/elements/1.1/" xmlns:cc="http://creativecommons.org/ns#" xmlns:svg="http://www.w3.org/2000/svg" xmlns:rdf="http://www.w3.org/1999/02/22-rdf-syntax-ns#" inkscape:version="0.91 r13725" sodipodi:docname="pointer.svg"
	 xmlns="http://www.w3.org/2000/svg" xmlns:xlink="http://www.w3.org/1999/xlink" x="0px" y="0px" width="330px" height="330px"
	 viewBox="-5 1691.5 330 330" enable-background="new -5 1691.5 330 330" xml:space="preserve">
<sodipodi:namedview  id="namedview14" pagecolor="#ffffff" inkscape:cx="48" inkscape:zoom="1.9666667" borderopacity="1" inkscape:cy="60" objecttolerance="10" bordercolor="#666666" guidetolerance="10" showgrid="false" gridtolerance="10" inkscape:current-layer="svg2" inkscape:window-maximized="0" inkscape:window-y="182" inkscape:window-height="789" inkscape:window-x="651" inkscape:window-width="812" inkscape:pageopacity="0" inkscape:pageshadow="2">
	</sodipodi:namedview>
<g id="g4">
	<g id="g6">
		<path id="path8" fill="#2CAC95" d="M159.986,1716.542L159.986,1716.542c-74.334,0-122,77.666-90.667,143c2,4,4.333,8,6.667,11.666
			l83.333,125c0.333,0.334,0.667,0.334,0.667,0l83.333-124c3-4.333,5.667-9,8-13.666
			C281.319,1793.542,233.986,1716.542,159.986,1716.542z M159.986,1883.542c-33,0-60-27-60-60s27-60,60-60s60,27,60,60
			S192.986,1883.542,159.986,1883.542z"/>
	</g>
</g>
</svg>
