<?xml version="1.0" encoding="utf-8"?>
<!-- Generator: Adobe Illustrator 16.0.0, SVG Export Plug-In . SVG Version: 6.00 Build 0)  -->
<!DOCTYPE svg PUBLIC "-//W3C//DTD SVG 1.1//EN" "http://www.w3.org/Graphics/SVG/1.1/DTD/svg11.dtd">
<svg version="1.1" id="Calque_1" xmlns="http://www.w3.org/2000/svg" xmlns:xlink="http://www.w3.org/1999/xlink" x="0px" y="0px"
	 width="330px" height="330px" viewBox="-5 1335 330 330" enable-background="new -5 1335 330 330" xml:space="preserve">
<path fill="#2CAC95" d="M196.95,1499.742c0.41,19.949-23.836,30.501-38.096,16.258c-13.243-13.228-5.881-34.129,11.522-37.959
	v-76.535c0-5.717,8.368-5.822,8.368,0.148v76.387c4.897,0.517,8.701,3.013,11.681,6.354l65.287-24.835
	c11.959-4.391,16.238,11.787,6.387,15.397L196.95,1499.742L196.95,1499.742z M23.668,1530.384l85.079-60.472l-42.925-13.409
	c46.498-119.373,226.408-85.296,226.733,43.276c-0.233,92.123-102.743,148.8-180.86,98.025l-23.439,16.661
	c95.324,72.473,231.025,3.583,231.432-114.687c-0.556-161.924-228.681-198.174-279.015-52.047l-40.36-13.531L23.668,1530.384z"/>
</svg>
